<?xml version="1.0" encoding="UTF-8"?>
<svg width="87px" height="87px" viewBox="0 0 87 87" version="1.1" xmlns="http://www.w3.org/2000/svg" xmlns:xlink="http://www.w3.org/1999/xlink">
<style>
* {
    color: black;
}
@media (prefers-color-scheme: dark) {
    * {
        color: white
    }
}
</style>
    <g id="Artboard" stroke="none" stroke-width="1" fill="none" fill-rule="evenodd">
        <g id="noun_Globe_1385186" transform="translate(9.000000, 3.000000)" fill="currentColor" fill-rule="nonzero">
            <path d="M55.667,33.333 C55.667,45.303 45.97,55 34,55 C22.034,55 12.333,45.303 12.333,33.333 C12.333,21.367 22.034,11.666 34,11.666 C45.97,11.667 55.667,21.367 55.667,33.333 Z" id="Path"></path>
            <path d="M67.333,4.713 L62.62,0 L55.094,7.526 C49.345,2.826 42.005,0 34,0 L34,6.667 C48.729,6.667 60.667,18.607 60.667,33.334 C60.667,48.063 48.729,60 34,60 C21.578,60 11.171,51.497 8.206,40 L1.337,40 C2.431,45.397 4.85,50.303 8.209,54.411 L0.667,61.953 L5.38,66.667 L12.909,59.138 C17.847,63.177 23.964,65.824 30.667,66.488 L30.667,73.334 L24,73.334 C20.318,73.334 17.333,76.319 17.333,80.001 L50.667,79.998 C50.667,76.316 47.682,73.331 44,73.331 L37.333,73.331 L37.333,66.498 C54.179,64.825 67.333,50.619 67.333,33.334 C67.333,25.33 64.508,17.989 59.808,12.241 L67.333,4.713 Z" id="Path"></path>
        </g>
    </g>
</svg>